# xmcd
#
# Track frame offsets:
#	150
#	23067
#	57072
#
# Disc length: 4440 seconds
#
# Revision: 1
# Processed by: cddbd v1.5.1PL0 Copyright (c) Steve Scherf et al.
# Submitted via: CDex 1.50Beta5
#
DISCID=19115603
DTITLE=SweetS - Love★Raspberry Juice
DYEAR=1900
DGENRE=Pop
TTITLE0=Love★Raspberry Juice
TTITLE1=Love★Raspberry Juice (Instrumenatal)
TTITLE2=データ トラック
EXTD=
EXTT0=
EXTT1=
EXTT2=
PLAYORDER=
